<?xml version="1.0" encoding="UTF-8" standalone="no"?>
<svg width="305.065mm" height="152.929mm"
 viewBox="0 0 1152 577"
 xmlns="http://www.w3.org/2000/svg" xmlns:xlink="http://www.w3.org/1999/xlink"  version="1.2" baseProfile="tiny">
<title>Qt SVG Document</title>
<desc>Generated with Qt</desc>
<defs>
</defs>
<g fill="none" stroke="black" stroke-width="1" fill-rule="evenodd" stroke-linecap="square" stroke-linejoin="bevel" >

<g fill="none" stroke="#000000" stroke-opacity="1" stroke-width="1" stroke-linecap="square" stroke-linejoin="bevel" transform="matrix(1,0,0,1,0,0)"
font-family="Ubuntu" font-size="14.6667" font-weight="400" font-style="normal" 
>
</g>

<g fill="none" stroke="#000000" stroke-opacity="1" stroke-width="1" stroke-linecap="square" stroke-linejoin="bevel" transform="matrix(1,0,0,1,0,0)"
font-family="Ubuntu" font-size="14.6667" font-weight="400" font-style="normal" 
>
</g>

<g fill="none" stroke="#000000" stroke-opacity="1" stroke-width="1" stroke-linecap="square" stroke-linejoin="bevel" transform="matrix(0.997412,0,0,0.997412,2319.98,-73.8085)"
font-family="Ubuntu" font-size="14.6667" font-weight="400" font-style="normal" 
>
</g>

<g fill="#ffffff" fill-opacity="1" stroke="none" transform="matrix(0.997412,0,0,0.997412,2319.98,-73.8085)"
font-family="Ubuntu" font-size="14.6667" font-weight="400" font-style="normal" 
>
<rect x="-2326" y="74" width="1154.5" height="579.5"/>
</g>

<g fill="none" stroke="#000000" stroke-opacity="1" stroke-width="1" stroke-linecap="square" stroke-linejoin="bevel" transform="matrix(0.997412,0,0,0.997412,2319.98,-73.8085)"
font-family="Ubuntu" font-size="14.6667" font-weight="400" font-style="normal" 
>
</g>

<g fill="none" stroke="#000000" stroke-opacity="1" stroke-width="1" stroke-linecap="square" stroke-linejoin="bevel" transform="matrix(0.997412,0,0,0.997412,150.609,125.674)"
font-family="Ubuntu" font-size="14.6667" font-weight="400" font-style="normal" 
>
</g>

<g fill="none" stroke="#204a87" stroke-opacity="1" stroke-width="1" stroke-linecap="square" stroke-linejoin="bevel" transform="matrix(0.997412,0,0,0.997412,150.609,125.674)"
font-family="Ubuntu" font-size="14.6667" font-weight="400" font-style="normal" 
>
<rect vector-effect="non-scaling-stroke" x="0" y="0" width="1000" height="450"/>
</g>

<g fill="none" stroke="#000000" stroke-opacity="1" stroke-width="1" stroke-linecap="square" stroke-linejoin="bevel" transform="matrix(0.997412,0,0,0.997412,150.609,125.674)"
font-family="Ubuntu" font-size="14.6667" font-weight="400" font-style="normal" 
>
</g>

<g fill="none" stroke="#000000" stroke-opacity="1" stroke-width="1" stroke-linecap="square" stroke-linejoin="bevel" transform="matrix(0.997412,0,0,0.997412,150.609,125.674)"
font-family="Ubuntu" font-size="14.6667" font-weight="400" font-style="normal" 
>
<text fill="#000000" fill-opacity="1" stroke="none" xml:space="preserve" x="5" y="14" font-family="Ubuntu" font-size="14.6667" font-weight="400" font-style="normal" 
 >loop [Arduino loop]</text>
</g>

<g fill="none" stroke="#204a87" stroke-opacity="1" stroke-width="1" stroke-linecap="square" stroke-linejoin="bevel" transform="matrix(0.997412,0,0,0.997412,150.609,125.674)"
font-family="Ubuntu" font-size="14.6667" font-weight="400" font-style="normal" 
>
<polyline fill="none" vector-effect="non-scaling-stroke" points="0,20 157,20 " />
<polyline fill="none" vector-effect="non-scaling-stroke" points="157,20 167,10 " />
<polyline fill="none" vector-effect="non-scaling-stroke" points="167,10 167,0 " />
</g>

<g fill="none" stroke="#000000" stroke-opacity="1" stroke-width="1" stroke-linecap="square" stroke-linejoin="bevel" transform="matrix(0.997412,0,0,0.997412,150.609,125.674)"
font-family="Ubuntu" font-size="14.6667" font-weight="400" font-style="normal" 
>
</g>

<g fill="none" stroke="#000000" stroke-opacity="1" stroke-width="1" stroke-linecap="square" stroke-linejoin="bevel" transform="matrix(0.997412,0,0,0.997412,2319.98,-73.8085)"
font-family="Ubuntu" font-size="14.6667" font-weight="400" font-style="normal" 
>
</g>

<g fill="none" stroke="#ff0000" stroke-opacity="1" stroke-dasharray="4,2" stroke-dashoffset="0" stroke-width="1" stroke-linecap="square" stroke-linejoin="bevel" transform="matrix(0.997412,0,0,0.997412,2319.98,-73.8085)"
font-family="Ubuntu" font-size="14.6667" font-weight="400" font-style="normal" 
>
<polyline fill="none" vector-effect="non-scaling-stroke" points="-2000,125 -2000,409 " />
</g>

<g fill="none" stroke="#000000" stroke-opacity="1" stroke-width="1" stroke-linecap="square" stroke-linejoin="bevel" transform="matrix(0.997412,0,0,0.997412,2319.98,-73.8085)"
font-family="Ubuntu" font-size="14.6667" font-weight="400" font-style="normal" 
>
</g>

<g fill="none" stroke="#000000" stroke-opacity="1" stroke-width="1" stroke-linecap="square" stroke-linejoin="bevel" transform="matrix(0.997412,0,0,0.997412,275.286,0.997412)"
font-family="Ubuntu" font-size="14.6667" font-weight="400" font-style="normal" 
>
</g>

<g fill="#ffff00" fill-opacity="1" stroke="#ff0000" stroke-opacity="1" stroke-width="1" stroke-linecap="square" stroke-linejoin="bevel" transform="matrix(0.997412,0,0,0.997412,275.286,0.997412)"
font-family="Ubuntu" font-size="14.6667" font-weight="400" font-style="normal" 
>
<rect vector-effect="non-scaling-stroke" x="0" y="0" width="100" height="50"/>
</g>

<g fill="#ffff00" fill-opacity="1" stroke="#000000" stroke-opacity="1" stroke-width="1" stroke-linecap="square" stroke-linejoin="bevel" transform="matrix(0.997412,0,0,0.997412,275.286,0.997412)"
font-family="Ubuntu" font-size="14.6667" font-weight="400" font-style="normal" 
>
</g>

<g fill="#ffff00" fill-opacity="1" stroke="#000000" stroke-opacity="1" stroke-width="1" stroke-linecap="square" stroke-linejoin="bevel" transform="matrix(0.997412,0,0,0.997412,275.286,0.997412)"
font-family="Ubuntu" font-size="14.6667" font-weight="400" font-style="normal" 
>
<text fill="#000000" fill-opacity="1" stroke="none" xml:space="preserve" x="13.6875" y="30.5" font-family="Ubuntu" font-size="14.6667" font-weight="400" font-style="normal" 
 > : MyStrom</text>
</g>

<g fill="#ffff00" fill-opacity="1" stroke="#000000" stroke-opacity="1" stroke-width="1.1875" stroke-linecap="butt" stroke-linejoin="bevel" transform="matrix(0.997412,0,0,0.997412,275.286,0.997412)"
font-family="Ubuntu" font-size="14.6667" font-weight="400" font-style="normal" 
>
<polyline fill="none" vector-effect="none" points="13,33 86,33 " />
</g>

<g fill="none" stroke="#000000" stroke-opacity="1" stroke-width="1" stroke-linecap="square" stroke-linejoin="bevel" transform="matrix(0.997412,0,0,0.997412,275.286,0.997412)"
font-family="Ubuntu" font-size="14.6667" font-weight="400" font-style="normal" 
>
</g>

<g fill="none" stroke="#000000" stroke-opacity="1" stroke-width="1" stroke-linecap="square" stroke-linejoin="bevel" transform="matrix(0.997412,0,0,0.997412,328.148,51.8654)"
font-family="Ubuntu" font-size="14.6667" font-weight="400" font-style="normal" 
>
</g>

<g fill="none" stroke="#000000" stroke-opacity="1" stroke-width="1" stroke-linecap="square" stroke-linejoin="bevel" transform="matrix(0.997412,0,0,0.997412,328.148,51.8654)"
font-family="Ubuntu" font-size="14.6667" font-weight="400" font-style="normal" 
>
</g>

<g fill="none" stroke="#000000" stroke-opacity="1" stroke-width="1" stroke-linecap="square" stroke-linejoin="bevel" transform="matrix(0.997412,0,0,0.997412,328.148,51.8654)"
font-family="Ubuntu" font-size="14.6667" font-weight="400" font-style="normal" 
>
<text fill="#000000" fill-opacity="1" stroke="none" xml:space="preserve" x="10.7188" y="18" font-family="Ubuntu" font-size="14.6667" font-weight="400" font-style="normal" 
 >1: setup(udpIn : UDP*, client : Client*)</text>
</g>

<g fill="none" stroke="#000000" stroke-opacity="1" stroke-width="1" stroke-linecap="square" stroke-linejoin="bevel" transform="matrix(0.997412,0,0,0.997412,328.148,51.8654)"
font-family="Ubuntu" font-size="14.6667" font-weight="400" font-style="normal" 
>
</g>

<g fill="none" stroke="#000000" stroke-opacity="1" stroke-width="1" stroke-linecap="square" stroke-linejoin="bevel" transform="matrix(0.997412,0,0,0.997412,328.148,124.676)"
font-family="Ubuntu" font-size="14.6667" font-weight="400" font-style="normal" 
>
</g>

<g fill="none" stroke="#000000" stroke-opacity="1" stroke-width="1" stroke-linecap="square" stroke-linejoin="bevel" transform="matrix(0.997412,0,0,0.997412,328.148,124.676)"
font-family="Ubuntu" font-size="14.6667" font-weight="400" font-style="normal" 
>
</g>

<g fill="none" stroke="#000000" stroke-opacity="1" stroke-width="1" stroke-linecap="square" stroke-linejoin="bevel" transform="matrix(0.997412,0,0,0.997412,328.148,124.676)"
font-family="Ubuntu" font-size="14.6667" font-weight="400" font-style="normal" 
>
<text fill="#000000" fill-opacity="1" stroke="none" xml:space="preserve" x="8.9375" y="18" font-family="Ubuntu" font-size="14.6667" font-weight="400" font-style="normal" 
 >2: loop()</text>
</g>

<g fill="none" stroke="#000000" stroke-opacity="1" stroke-width="1" stroke-linecap="square" stroke-linejoin="bevel" transform="matrix(0.997412,0,0,0.997412,328.148,124.676)"
font-family="Ubuntu" font-size="14.6667" font-weight="400" font-style="normal" 
>
</g>

<g fill="none" stroke="#000000" stroke-opacity="1" stroke-width="1" stroke-linecap="square" stroke-linejoin="bevel" transform="matrix(0.997412,0,0,0.997412,2319.98,-73.8085)"
font-family="Ubuntu" font-size="14.6667" font-weight="400" font-style="normal" 
>
</g>

<g fill="none" stroke="#ff0000" stroke-opacity="1" stroke-dasharray="4,2" stroke-dashoffset="0" stroke-width="1" stroke-linecap="square" stroke-linejoin="bevel" transform="matrix(0.997412,0,0,0.997412,2319.98,-73.8085)"
font-family="Ubuntu" font-size="14.6667" font-weight="400" font-style="normal" 
>
<polyline fill="none" vector-effect="non-scaling-stroke" points="-1325,300 -1325,302 " />
</g>

<g fill="none" stroke="#000000" stroke-opacity="1" stroke-width="1" stroke-linecap="square" stroke-linejoin="bevel" transform="matrix(0.997412,0,0,0.997412,2319.98,-73.8085)"
font-family="Ubuntu" font-size="14.6667" font-weight="400" font-style="normal" 
>
</g>

<g fill="none" stroke="#000000" stroke-opacity="1" stroke-width="1" stroke-linecap="square" stroke-linejoin="bevel" transform="matrix(0.997412,0,0,0.997412,923.603,175.544)"
font-family="Ubuntu" font-size="14.6667" font-weight="400" font-style="normal" 
>
</g>

<g fill="#ffff00" fill-opacity="1" stroke="#ff0000" stroke-opacity="1" stroke-width="1" stroke-linecap="square" stroke-linejoin="bevel" transform="matrix(0.997412,0,0,0.997412,923.603,175.544)"
font-family="Ubuntu" font-size="14.6667" font-weight="400" font-style="normal" 
>
<rect vector-effect="non-scaling-stroke" x="0" y="0" width="150" height="50"/>
</g>

<g fill="#ffff00" fill-opacity="1" stroke="#000000" stroke-opacity="1" stroke-width="1" stroke-linecap="square" stroke-linejoin="bevel" transform="matrix(0.997412,0,0,0.997412,923.603,175.544)"
font-family="Ubuntu" font-size="14.6667" font-weight="400" font-style="normal" 
>
</g>

<g fill="#ffff00" fill-opacity="1" stroke="#000000" stroke-opacity="1" stroke-width="1" stroke-linecap="square" stroke-linejoin="bevel" transform="matrix(0.997412,0,0,0.997412,923.603,175.544)"
font-family="Ubuntu" font-size="14.6667" font-weight="400" font-style="normal" 
>
<text fill="#000000" fill-opacity="1" stroke="none" xml:space="preserve" x="10.2188" y="30.5" font-family="Ubuntu" font-size="14.6667" font-weight="400" font-style="normal" 
 > : MyStromElement</text>
</g>

<g fill="#ffff00" fill-opacity="1" stroke="#000000" stroke-opacity="1" stroke-width="1.1875" stroke-linecap="butt" stroke-linejoin="bevel" transform="matrix(0.997412,0,0,0.997412,923.603,175.544)"
font-family="Ubuntu" font-size="14.6667" font-weight="400" font-style="normal" 
>
<polyline fill="none" vector-effect="none" points="10,33 139,33 " />
</g>

<g fill="none" stroke="#000000" stroke-opacity="1" stroke-width="1" stroke-linecap="square" stroke-linejoin="bevel" transform="matrix(0.997412,0,0,0.997412,923.603,175.544)"
font-family="Ubuntu" font-size="14.6667" font-weight="400" font-style="normal" 
>
</g>

<g fill="none" stroke="#000000" stroke-opacity="1" stroke-width="1" stroke-linecap="square" stroke-linejoin="bevel" transform="matrix(0.997412,0,0,0.997412,2319.98,-73.8085)"
font-family="Ubuntu" font-size="14.6667" font-weight="400" font-style="normal" 
>
</g>

<g fill="none" stroke="#ff0000" stroke-opacity="1" stroke-dasharray="4,2" stroke-dashoffset="0" stroke-width="1" stroke-linecap="square" stroke-linejoin="bevel" transform="matrix(0.997412,0,0,0.997412,2319.98,-73.8085)"
font-family="Ubuntu" font-size="14.6667" font-weight="400" font-style="normal" 
>
<polyline fill="none" vector-effect="non-scaling-stroke" points="-1325,406 -1325,528 " />
</g>

<g fill="none" stroke="#000000" stroke-opacity="1" stroke-width="1" stroke-linecap="square" stroke-linejoin="bevel" transform="matrix(0.997412,0,0,0.997412,2319.98,-73.8085)"
font-family="Ubuntu" font-size="14.6667" font-weight="400" font-style="normal" 
>
</g>

<g fill="none" stroke="#000000" stroke-opacity="1" stroke-width="1" stroke-linecap="square" stroke-linejoin="bevel" transform="matrix(0.997412,0,0,0.997412,923.603,281.481)"
font-family="Ubuntu" font-size="14.6667" font-weight="400" font-style="normal" 
>
</g>

<g fill="#ffff00" fill-opacity="1" stroke="#ff0000" stroke-opacity="1" stroke-width="1" stroke-linecap="square" stroke-linejoin="bevel" transform="matrix(0.997412,0,0,0.997412,923.603,281.481)"
font-family="Ubuntu" font-size="14.6667" font-weight="400" font-style="normal" 
>
<rect vector-effect="non-scaling-stroke" x="0" y="0" width="150" height="50"/>
</g>

<g fill="#ffff00" fill-opacity="1" stroke="#000000" stroke-opacity="1" stroke-width="1" stroke-linecap="square" stroke-linejoin="bevel" transform="matrix(0.997412,0,0,0.997412,923.603,281.481)"
font-family="Ubuntu" font-size="14.6667" font-weight="400" font-style="normal" 
>
</g>

<g fill="#ffff00" fill-opacity="1" stroke="#000000" stroke-opacity="1" stroke-width="1" stroke-linecap="square" stroke-linejoin="bevel" transform="matrix(0.997412,0,0,0.997412,923.603,281.481)"
font-family="Ubuntu" font-size="14.6667" font-weight="400" font-style="normal" 
>
<text fill="#000000" fill-opacity="1" stroke="none" xml:space="preserve" x="16.3125" y="30.5" font-family="Ubuntu" font-size="14.6667" font-weight="400" font-style="normal" 
 > : MyStromSwitch</text>
</g>

<g fill="#ffff00" fill-opacity="1" stroke="#000000" stroke-opacity="1" stroke-width="1.1875" stroke-linecap="butt" stroke-linejoin="bevel" transform="matrix(0.997412,0,0,0.997412,923.603,281.481)"
font-family="Ubuntu" font-size="14.6667" font-weight="400" font-style="normal" 
>
<polyline fill="none" vector-effect="none" points="16,33 133,33 " />
</g>

<g fill="none" stroke="#000000" stroke-opacity="1" stroke-width="1" stroke-linecap="square" stroke-linejoin="bevel" transform="matrix(0.997412,0,0,0.997412,923.603,281.481)"
font-family="Ubuntu" font-size="14.6667" font-weight="400" font-style="normal" 
>
</g>

<g fill="none" stroke="#000000" stroke-opacity="1" stroke-width="1" stroke-linecap="square" stroke-linejoin="bevel" transform="matrix(0.997412,0,0,0.997412,474.768,175.544)"
font-family="Ubuntu" font-size="14.6667" font-weight="400" font-style="normal" 
>
</g>

<g fill="none" stroke="#000000" stroke-opacity="1" stroke-width="1" stroke-linecap="square" stroke-linejoin="bevel" transform="matrix(0.997412,0,0,0.997412,474.768,175.544)"
font-family="Ubuntu" font-size="14.6667" font-weight="400" font-style="normal" 
>
</g>

<g fill="none" stroke="#000000" stroke-opacity="1" stroke-width="1" stroke-linecap="square" stroke-linejoin="bevel" transform="matrix(0.997412,0,0,0.997412,474.768,175.544)"
font-family="Ubuntu" font-size="14.6667" font-weight="400" font-style="normal" 
>
<text fill="#000000" fill-opacity="1" stroke="none" xml:space="preserve" x="15.0625" y="18" font-family="Ubuntu" font-size="14.6667" font-weight="400" font-style="normal" 
 >4: insert(myStromElement : MyStromElement*)</text>
</g>

<g fill="none" stroke="#000000" stroke-opacity="1" stroke-width="1" stroke-linecap="square" stroke-linejoin="bevel" transform="matrix(0.997412,0,0,0.997412,474.768,175.544)"
font-family="Ubuntu" font-size="14.6667" font-weight="400" font-style="normal" 
>
</g>

<g fill="none" stroke="#000000" stroke-opacity="1" stroke-width="1" stroke-linecap="square" stroke-linejoin="bevel" transform="matrix(0.997412,0,0,0.997412,798.927,499.703)"
font-family="Ubuntu" font-size="14.6667" font-weight="400" font-style="normal" 
>
</g>

<g fill="none" stroke="#000000" stroke-opacity="1" stroke-width="1" stroke-linecap="square" stroke-linejoin="bevel" transform="matrix(0.997412,0,0,0.997412,798.927,499.703)"
font-family="Ubuntu" font-size="14.6667" font-weight="400" font-style="normal" 
>
</g>

<g fill="none" stroke="#000000" stroke-opacity="1" stroke-width="1" stroke-linecap="square" stroke-linejoin="bevel" transform="matrix(0.997412,0,0,0.997412,798.927,499.703)"
font-family="Ubuntu" font-size="14.6667" font-weight="400" font-style="normal" 
>
<text fill="#000000" fill-opacity="1" stroke="none" xml:space="preserve" x="6.96875" y="18" font-family="Ubuntu" font-size="14.6667" font-weight="400" font-style="normal" 
 >...</text>
</g>

<g fill="none" stroke="#000000" stroke-opacity="1" stroke-width="1" stroke-linecap="square" stroke-linejoin="bevel" transform="matrix(0.997412,0,0,0.997412,798.927,499.703)"
font-family="Ubuntu" font-size="14.6667" font-weight="400" font-style="normal" 
>
</g>

<g fill="none" stroke="#000000" stroke-opacity="1" stroke-width="1" stroke-linecap="square" stroke-linejoin="bevel" transform="matrix(0.997412,0,0,0.997412,2319.98,-73.8085)"
font-family="Ubuntu" font-size="14.6667" font-weight="400" font-style="normal" 
>
</g>

<g fill="none" stroke="#204a87" stroke-opacity="1" stroke-dasharray="4,2" stroke-dashoffset="0" stroke-width="1" stroke-linecap="square" stroke-linejoin="bevel" transform="matrix(0.997412,0,0,0.997412,2319.98,-73.8085)"
font-family="Ubuntu" font-size="14.6667" font-weight="400" font-style="normal" 
>
<polyline fill="none" vector-effect="non-scaling-stroke" points="-2250,150 -2250,638 " />
</g>

<g fill="none" stroke="#000000" stroke-opacity="1" stroke-width="1" stroke-linecap="square" stroke-linejoin="bevel" transform="matrix(0.997412,0,0,0.997412,2319.98,-73.8085)"
font-family="Ubuntu" font-size="14.6667" font-weight="400" font-style="normal" 
>
</g>

<g fill="none" stroke="#000000" stroke-opacity="1" stroke-width="1" stroke-linecap="square" stroke-linejoin="bevel" transform="matrix(0.997412,0,0,0.997412,0.997412,0.997412)"
font-family="Ubuntu" font-size="14.6667" font-weight="400" font-style="normal" 
>
</g>

<g fill="#ffff00" fill-opacity="1" stroke="#204a87" stroke-opacity="1" stroke-width="1" stroke-linecap="square" stroke-linejoin="bevel" transform="matrix(0.997412,0,0,0.997412,0.997412,0.997412)"
font-family="Ubuntu" font-size="14.6667" font-weight="400" font-style="normal" 
>
<ellipse vector-effect="non-scaling-stroke" cx="75" cy="6.5" rx="10" ry="6.5"/>
<polyline fill="none" vector-effect="non-scaling-stroke" points="75,13 75,26 " />
<polyline fill="none" vector-effect="non-scaling-stroke" points="75,26 65,40 " />
<polyline fill="none" vector-effect="non-scaling-stroke" points="75,26 85,40 " />
<polyline fill="none" vector-effect="non-scaling-stroke" points="65,19 85,19 " />
</g>

<g fill="#ffff00" fill-opacity="1" stroke="#000000" stroke-opacity="1" stroke-width="1" stroke-linecap="square" stroke-linejoin="bevel" transform="matrix(0.997412,0,0,0.997412,0.997412,0.997412)"
font-family="Ubuntu" font-size="14.6667" font-weight="400" font-style="normal" 
>
</g>

<g fill="#ffff00" fill-opacity="1" stroke="#000000" stroke-opacity="1" stroke-width="1" stroke-linecap="square" stroke-linejoin="bevel" transform="matrix(0.997412,0,0,0.997412,0.997412,0.997412)"
font-family="Ubuntu" font-size="14.6667" font-weight="400" font-style="normal" 
>
<text fill="#000000" fill-opacity="1" stroke="none" xml:space="preserve" x="12.625" y="59" font-family="Ubuntu" font-size="14.6667" font-weight="400" font-style="normal" 
 > : MyStromSwitch_</text>
</g>

<g fill="none" stroke="#000000" stroke-opacity="1" stroke-width="1" stroke-linecap="square" stroke-linejoin="bevel" transform="matrix(0.997412,0,0,0.997412,0.997412,0.997412)"
font-family="Ubuntu" font-size="14.6667" font-weight="400" font-style="normal" 
>
</g>

<g fill="none" stroke="#000000" stroke-opacity="1" stroke-width="1" stroke-linecap="square" stroke-linejoin="bevel" transform="matrix(0.997412,0,0,0.997412,2319.98,-73.8085)"
font-family="Ubuntu" font-size="14.6667" font-weight="400" font-style="normal" 
>
</g>

<g fill="none" stroke="#ef2929" stroke-opacity="1" stroke-dasharray="4,2" stroke-dashoffset="0" stroke-width="1" stroke-linecap="square" stroke-linejoin="bevel" transform="matrix(0.997412,0,0,0.997412,2319.98,-73.8085)"
font-family="Ubuntu" font-size="14.6667" font-weight="400" font-style="normal" 
>
<polyline fill="none" vector-effect="non-scaling-stroke" points="-1862,525 -1862,634 " />
</g>

<g fill="none" stroke="#000000" stroke-opacity="1" stroke-width="1" stroke-linecap="square" stroke-linejoin="bevel" transform="matrix(0.997412,0,0,0.997412,2319.98,-73.8085)"
font-family="Ubuntu" font-size="14.6667" font-weight="400" font-style="normal" 
>
</g>

<g fill="none" stroke="#000000" stroke-opacity="1" stroke-width="1" stroke-linecap="square" stroke-linejoin="bevel" transform="matrix(0.997412,0,0,0.997412,424.897,399.962)"
font-family="Ubuntu" font-size="14.6667" font-weight="400" font-style="normal" 
>
</g>

<g fill="#ffff00" fill-opacity="1" stroke="#ef2929" stroke-opacity="1" stroke-width="1" stroke-linecap="square" stroke-linejoin="bevel" transform="matrix(0.997412,0,0,0.997412,424.897,399.962)"
font-family="Ubuntu" font-size="14.6667" font-weight="400" font-style="normal" 
>
<rect vector-effect="non-scaling-stroke" x="0" y="0" width="75" height="50"/>
</g>

<g fill="#ffff00" fill-opacity="1" stroke="#000000" stroke-opacity="1" stroke-width="1" stroke-linecap="square" stroke-linejoin="bevel" transform="matrix(0.997412,0,0,0.997412,424.897,399.962)"
font-family="Ubuntu" font-size="14.6667" font-weight="400" font-style="normal" 
>
</g>

<g fill="#ffff00" fill-opacity="1" stroke="#000000" stroke-opacity="1" stroke-width="1" stroke-linecap="square" stroke-linejoin="bevel" transform="matrix(0.997412,0,0,0.997412,424.897,399.962)"
font-family="Ubuntu" font-size="14.6667" font-weight="400" font-style="normal" 
>
<text fill="#000000" fill-opacity="1" stroke="none" xml:space="preserve" x="13.3281" y="30.5" font-family="Ubuntu" font-size="14.6667" font-weight="400" font-style="normal" 
 > : Temp</text>
</g>

<g fill="#ffff00" fill-opacity="1" stroke="#000000" stroke-opacity="1" stroke-width="1.1875" stroke-linecap="butt" stroke-linejoin="bevel" transform="matrix(0.997412,0,0,0.997412,424.897,399.962)"
font-family="Ubuntu" font-size="14.6667" font-weight="400" font-style="normal" 
>
<polyline fill="none" vector-effect="none" points="13,33 61,33 " />
</g>

<g fill="none" stroke="#000000" stroke-opacity="1" stroke-width="1" stroke-linecap="square" stroke-linejoin="bevel" transform="matrix(0.997412,0,0,0.997412,424.897,399.962)"
font-family="Ubuntu" font-size="14.6667" font-weight="400" font-style="normal" 
>
</g>

<g fill="none" stroke="#000000" stroke-opacity="1" stroke-width="1" stroke-linecap="square" stroke-linejoin="bevel" transform="matrix(0.997412,0,0,0.997412,76.8007,535.04)"
font-family="Ubuntu" font-size="14.6667" font-weight="400" font-style="normal" 
>
</g>

<g fill="none" stroke="#ef2929" stroke-opacity="1" stroke-width="1" stroke-linecap="square" stroke-linejoin="bevel" transform="matrix(0.997412,0,0,0.997412,76.8007,535.04)"
font-family="Ubuntu" font-size="14.6667" font-weight="400" font-style="normal" 
>
<polyline fill="none" vector-effect="non-scaling-stroke" points="0,4 4,1 " />
<polyline fill="none" vector-effect="non-scaling-stroke" points="0,4 4,7 " />
<polyline fill="none" vector-effect="non-scaling-stroke" points="0,4 385,4 " />
</g>

<g fill="none" stroke="#000000" stroke-opacity="1" stroke-width="1" stroke-linecap="square" stroke-linejoin="bevel" transform="matrix(0.997412,0,0,0.997412,76.8007,535.04)"
font-family="Ubuntu" font-size="14.6667" font-weight="400" font-style="normal" 
>
</g>

<g fill="none" stroke="#000000" stroke-opacity="1" stroke-width="1" stroke-linecap="square" stroke-linejoin="bevel" transform="matrix(0.997412,0,0,0.997412,350.091,275.286)"
font-family="Ubuntu" font-size="14.6667" font-weight="400" font-style="normal" 
>
</g>

<g fill="none" stroke="#000000" stroke-opacity="1" stroke-width="1" stroke-linecap="square" stroke-linejoin="bevel" transform="matrix(0.997412,0,0,0.997412,350.091,275.286)"
font-family="Ubuntu" font-size="14.6667" font-weight="400" font-style="normal" 
>
</g>

<g fill="none" stroke="#000000" stroke-opacity="1" stroke-width="1" stroke-linecap="square" stroke-linejoin="bevel" transform="matrix(0.997412,0,0,0.997412,350.091,275.286)"
font-family="Ubuntu" font-size="14.6667" font-weight="400" font-style="normal" 
>
<text fill="#000000" fill-opacity="1" stroke="none" xml:space="preserve" x="4.6875" y="18" font-family="Ubuntu" font-size="14.6667" font-weight="400" font-style="normal" 
 >5: MyStromSwitch(clientIn : Client*, myStromElementIn : MyStromElement*)</text>
</g>

<g fill="none" stroke="#000000" stroke-opacity="1" stroke-width="1" stroke-linecap="square" stroke-linejoin="bevel" transform="matrix(0.997412,0,0,0.997412,350.091,275.286)"
font-family="Ubuntu" font-size="14.6667" font-weight="400" font-style="normal" 
>
</g>

<g fill="none" stroke="#000000" stroke-opacity="1" stroke-width="1" stroke-linecap="square" stroke-linejoin="bevel" transform="matrix(0.997412,0,0,0.997412,263.317,247.358)"
font-family="Ubuntu" font-size="14.6667" font-weight="400" font-style="normal" 
>
</g>

<g fill="#ffff00" fill-opacity="1" stroke="#ff0000" stroke-opacity="1" stroke-width="1" stroke-linecap="square" stroke-linejoin="bevel" transform="matrix(0.997412,0,0,0.997412,263.317,247.358)"
font-family="Ubuntu" font-size="14.6667" font-weight="400" font-style="normal" 
>
<path vector-effect="non-scaling-stroke" fill-rule="evenodd" d="M0,8.1 C0,3.62649 3.35786,0 7.5,0 L117.5,0 C121.642,0 125,3.62649 125,8.1 L125,18.9 C125,23.3735 121.642,27 117.5,27 L7.5,27 C3.35786,27 0,23.3735 0,18.9 L0,8.1"/>
</g>

<g fill="#ffff00" fill-opacity="1" stroke="#000000" stroke-opacity="1" stroke-width="1" stroke-linecap="square" stroke-linejoin="bevel" transform="matrix(0.997412,0,0,0.997412,263.317,247.358)"
font-family="Ubuntu" font-size="14.6667" font-weight="400" font-style="normal" 
>
</g>

<g fill="#ffff00" fill-opacity="1" stroke="#000000" stroke-opacity="1" stroke-width="1" stroke-linecap="square" stroke-linejoin="bevel" transform="matrix(0.997412,0,0,0.997412,263.317,247.358)"
font-family="Ubuntu" font-size="14.6667" font-weight="400" font-style="normal" 
>
<text fill="#000000" fill-opacity="1" stroke="none" xml:space="preserve" x="9.26563" y="19" font-family="Ubuntu" font-size="14.6667" font-weight="400" font-style="normal" 
 >{ elementExist }</text>
</g>

<g fill="none" stroke="#000000" stroke-opacity="1" stroke-width="1" stroke-linecap="square" stroke-linejoin="bevel" transform="matrix(0.997412,0,0,0.997412,263.317,247.358)"
font-family="Ubuntu" font-size="14.6667" font-weight="400" font-style="normal" 
>
</g>

<g fill="none" stroke="#000000" stroke-opacity="1" stroke-width="1" stroke-linecap="square" stroke-linejoin="bevel" transform="matrix(0.997412,0,0,0.997412,326.154,306.416)"
font-family="Ubuntu" font-size="14.6667" font-weight="400" font-style="normal" 
>
</g>

<g fill="none" stroke="#ff0000" stroke-opacity="1" stroke-width="1" stroke-linecap="square" stroke-linejoin="bevel" transform="matrix(0.997412,0,0,0.997412,326.154,306.416)"
font-family="Ubuntu" font-size="14.6667" font-weight="400" font-style="normal" 
>
<polyline fill="none" vector-effect="non-scaling-stroke" points="598,4 594,1 " />
<polyline fill="none" vector-effect="non-scaling-stroke" points="598,4 594,7 " />
<polyline fill="none" vector-effect="non-scaling-stroke" points="0,4 598,4 " />
</g>

<g fill="none" stroke="#000000" stroke-opacity="1" stroke-width="1" stroke-linecap="square" stroke-linejoin="bevel" transform="matrix(0.997412,0,0,0.997412,326.154,306.416)"
font-family="Ubuntu" font-size="14.6667" font-weight="400" font-style="normal" 
>
</g>

<g fill="none" stroke="#000000" stroke-opacity="1" stroke-width="1" stroke-linecap="square" stroke-linejoin="bevel" transform="matrix(0.997412,0,0,0.997412,76.8007,368.045)"
font-family="Ubuntu" font-size="14.6667" font-weight="400" font-style="normal" 
>
</g>

<g fill="none" stroke="#ef2929" stroke-opacity="1" stroke-width="1" stroke-linecap="square" stroke-linejoin="bevel" transform="matrix(0.997412,0,0,0.997412,76.8007,368.045)"
font-family="Ubuntu" font-size="14.6667" font-weight="400" font-style="normal" 
>
<polyline fill="none" vector-effect="non-scaling-stroke" points="0,4 4,1 " />
<polyline fill="none" vector-effect="non-scaling-stroke" points="0,4 4,7 " />
<polyline fill="none" vector-effect="non-scaling-stroke" points="0,4 922,4 " />
</g>

<g fill="none" stroke="#000000" stroke-opacity="1" stroke-width="1" stroke-linecap="square" stroke-linejoin="bevel" transform="matrix(0.997412,0,0,0.997412,76.8007,368.045)"
font-family="Ubuntu" font-size="14.6667" font-weight="400" font-style="normal" 
>
</g>

<g fill="none" stroke="#000000" stroke-opacity="1" stroke-width="1" stroke-linecap="square" stroke-linejoin="bevel" transform="matrix(0.997412,0,0,0.997412,873.733,343.11)"
font-family="Ubuntu" font-size="14.6667" font-weight="400" font-style="normal" 
>
</g>

<g fill="none" stroke="#000000" stroke-opacity="1" stroke-width="1" stroke-linecap="square" stroke-linejoin="bevel" transform="matrix(0.997412,0,0,0.997412,873.733,343.11)"
font-family="Ubuntu" font-size="14.6667" font-weight="400" font-style="normal" 
>
</g>

<g fill="none" stroke="#000000" stroke-opacity="1" stroke-width="1" stroke-linecap="square" stroke-linejoin="bevel" transform="matrix(0.997412,0,0,0.997412,873.733,343.11)"
font-family="Ubuntu" font-size="14.6667" font-weight="400" font-style="normal" 
>
<text fill="#000000" fill-opacity="1" stroke="none" xml:space="preserve" x="12.0938" y="18" font-family="Ubuntu" font-size="14.6667" font-weight="400" font-style="normal" 
 >6: turnOn()</text>
</g>

<g fill="none" stroke="#000000" stroke-opacity="1" stroke-width="1" stroke-linecap="square" stroke-linejoin="bevel" transform="matrix(0.997412,0,0,0.997412,873.733,343.11)"
font-family="Ubuntu" font-size="14.6667" font-weight="400" font-style="normal" 
>
</g>

<g fill="none" stroke="#000000" stroke-opacity="1" stroke-width="1" stroke-linecap="square" stroke-linejoin="bevel" transform="matrix(0.997412,0,0,0.997412,519.651,399.962)"
font-family="Ubuntu" font-size="14.6667" font-weight="400" font-style="normal" 
>
</g>

<g fill="none" stroke="#000000" stroke-opacity="1" stroke-width="1" stroke-linecap="square" stroke-linejoin="bevel" transform="matrix(0.997412,0,0,0.997412,519.651,399.962)"
font-family="Ubuntu" font-size="14.6667" font-weight="400" font-style="normal" 
>
</g>

<g fill="none" stroke="#000000" stroke-opacity="1" stroke-width="1" stroke-linecap="square" stroke-linejoin="bevel" transform="matrix(0.997412,0,0,0.997412,519.651,399.962)"
font-family="Ubuntu" font-size="14.6667" font-weight="400" font-style="normal" 
>
<text fill="#000000" fill-opacity="1" stroke="none" xml:space="preserve" x="14.2031" y="18" font-family="Ubuntu" font-size="14.6667" font-weight="400" font-style="normal" 
 >7: Temp(clientIn : Client*, myStromElementIn : MyStromElement*)</text>
</g>

<g fill="none" stroke="#000000" stroke-opacity="1" stroke-width="1" stroke-linecap="square" stroke-linejoin="bevel" transform="matrix(0.997412,0,0,0.997412,519.651,399.962)"
font-family="Ubuntu" font-size="14.6667" font-weight="400" font-style="normal" 
>
</g>

<g fill="none" stroke="#000000" stroke-opacity="1" stroke-width="1" stroke-linecap="square" stroke-linejoin="bevel" transform="matrix(0.997412,0,0,0.997412,333.135,509.677)"
font-family="Ubuntu" font-size="14.6667" font-weight="400" font-style="normal" 
>
</g>

<g fill="none" stroke="#000000" stroke-opacity="1" stroke-width="1" stroke-linecap="square" stroke-linejoin="bevel" transform="matrix(0.997412,0,0,0.997412,333.135,509.677)"
font-family="Ubuntu" font-size="14.6667" font-weight="400" font-style="normal" 
>
</g>

<g fill="none" stroke="#000000" stroke-opacity="1" stroke-width="1" stroke-linecap="square" stroke-linejoin="bevel" transform="matrix(0.997412,0,0,0.997412,333.135,509.677)"
font-family="Ubuntu" font-size="14.6667" font-weight="400" font-style="normal" 
>
<text fill="#000000" fill-opacity="1" stroke="none" xml:space="preserve" x="3.9375" y="18" font-family="Ubuntu" font-size="14.6667" font-weight="400" font-style="normal" 
 >8: getMeasured()</text>
</g>

<g fill="none" stroke="#000000" stroke-opacity="1" stroke-width="1" stroke-linecap="square" stroke-linejoin="bevel" transform="matrix(0.997412,0,0,0.997412,333.135,509.677)"
font-family="Ubuntu" font-size="14.6667" font-weight="400" font-style="normal" 
>
</g>

<g fill="none" stroke="#000000" stroke-opacity="1" stroke-width="1" stroke-linecap="square" stroke-linejoin="bevel" transform="matrix(0.997412,0,0,0.997412,323.161,77.5643)"
font-family="Ubuntu" font-size="14.6667" font-weight="400" font-style="normal" 
>
</g>

<g fill="#ffffff" fill-opacity="1" stroke="none" transform="matrix(0.997412,0,0,0.997412,323.161,77.5643)"
font-family="Ubuntu" font-size="14.6667" font-weight="400" font-style="normal" 
>
<rect x="0" y="0" width="17" height="20"/>
</g>

<g fill="#ffff00" fill-opacity="1" stroke="#ff0000" stroke-opacity="1" stroke-width="1" stroke-linecap="square" stroke-linejoin="bevel" transform="matrix(0.997412,0,0,0.997412,323.161,77.5643)"
font-family="Ubuntu" font-size="14.6667" font-weight="400" font-style="normal" 
>
<rect vector-effect="non-scaling-stroke" x="0" y="0" width="17" height="20"/>
<polyline fill="none" vector-effect="non-scaling-stroke" points="17,3 49,3 " />
<polyline fill="none" vector-effect="non-scaling-stroke" points="49,3 49,17 " />
<polyline fill="none" vector-effect="non-scaling-stroke" points="17,17 21,14 " />
<polyline fill="none" vector-effect="non-scaling-stroke" points="17,17 21,20 " />
<polyline fill="none" vector-effect="non-scaling-stroke" points="17,17 49,17 " />
</g>

<g fill="none" stroke="#000000" stroke-opacity="1" stroke-width="1" stroke-linecap="square" stroke-linejoin="bevel" transform="matrix(0.997412,0,0,0.997412,323.161,77.5643)"
font-family="Ubuntu" font-size="14.6667" font-weight="400" font-style="normal" 
>
</g>

<g fill="none" stroke="#000000" stroke-opacity="1" stroke-width="1" stroke-linecap="square" stroke-linejoin="bevel" transform="matrix(0.997412,0,0,0.997412,500.701,424.897)"
font-family="Ubuntu" font-size="14.6667" font-weight="400" font-style="normal" 
>
</g>

<g fill="none" stroke="#ef2929" stroke-opacity="1" stroke-width="1" stroke-linecap="square" stroke-linejoin="bevel" transform="matrix(0.997412,0,0,0.997412,500.701,424.897)"
font-family="Ubuntu" font-size="14.6667" font-weight="400" font-style="normal" 
>
<polyline fill="none" vector-effect="non-scaling-stroke" points="0,4 4,1 " />
<polyline fill="none" vector-effect="non-scaling-stroke" points="0,4 4,7 " />
<polyline fill="none" vector-effect="non-scaling-stroke" points="0,4 498,4 " />
</g>

<g fill="none" stroke="#000000" stroke-opacity="1" stroke-width="1" stroke-linecap="square" stroke-linejoin="bevel" transform="matrix(0.997412,0,0,0.997412,500.701,424.897)"
font-family="Ubuntu" font-size="14.6667" font-weight="400" font-style="normal" 
>
</g>

<g fill="none" stroke="#000000" stroke-opacity="1" stroke-width="1" stroke-linecap="square" stroke-linejoin="bevel" transform="matrix(0.997412,0,0,0.997412,323.161,150.24)"
font-family="Ubuntu" font-size="14.6667" font-weight="400" font-style="normal" 
>
</g>

<g fill="#ffffff" fill-opacity="1" stroke="none" transform="matrix(0.997412,0,0,0.997412,323.161,150.24)"
font-family="Ubuntu" font-size="14.6667" font-weight="400" font-style="normal" 
>
<rect x="0" y="0" width="17" height="77"/>
</g>

<g fill="#ffff00" fill-opacity="1" stroke="#ff0000" stroke-opacity="1" stroke-width="1" stroke-linecap="square" stroke-linejoin="bevel" transform="matrix(0.997412,0,0,0.997412,323.161,150.24)"
font-family="Ubuntu" font-size="14.6667" font-weight="400" font-style="normal" 
>
<rect vector-effect="non-scaling-stroke" x="0" y="0" width="17" height="77"/>
<polyline fill="none" vector-effect="non-scaling-stroke" points="17,3 49,3 " />
<polyline fill="none" vector-effect="non-scaling-stroke" points="49,3 49,74 " />
<polyline fill="none" vector-effect="non-scaling-stroke" points="17,74 21,71 " />
<polyline fill="none" vector-effect="non-scaling-stroke" points="17,74 21,77 " />
<polyline fill="none" vector-effect="non-scaling-stroke" points="17,74 49,74 " />
</g>

<g fill="none" stroke="#000000" stroke-opacity="1" stroke-width="1" stroke-linecap="square" stroke-linejoin="bevel" transform="matrix(0.997412,0,0,0.997412,323.161,150.24)"
font-family="Ubuntu" font-size="14.6667" font-weight="400" font-style="normal" 
>
</g>

<g fill="none" stroke="#000000" stroke-opacity="1" stroke-width="1" stroke-linecap="square" stroke-linejoin="bevel" transform="matrix(0.997412,0,0,0.997412,326.154,200.48)"
font-family="Ubuntu" font-size="14.6667" font-weight="400" font-style="normal" 
>
</g>

<g fill="none" stroke="#ff0000" stroke-opacity="1" stroke-width="1" stroke-linecap="square" stroke-linejoin="bevel" transform="matrix(0.997412,0,0,0.997412,326.154,200.48)"
font-family="Ubuntu" font-size="14.6667" font-weight="400" font-style="normal" 
>
<polyline fill="none" vector-effect="non-scaling-stroke" points="598,4 594,1 " />
<polyline fill="none" vector-effect="non-scaling-stroke" points="598,4 594,7 " />
<polyline fill="none" vector-effect="non-scaling-stroke" points="7,4 598,4 " />
</g>

<g fill="none" stroke="#000000" stroke-opacity="1" stroke-width="1" stroke-linecap="square" stroke-linejoin="bevel" transform="matrix(0.997412,0,0,0.997412,326.154,200.48)"
font-family="Ubuntu" font-size="14.6667" font-weight="400" font-style="normal" 
>
</g>

<g fill="none" stroke="#000000" stroke-opacity="1" stroke-width="1" stroke-linecap="square" stroke-linejoin="bevel" transform="matrix(0.997412,0,0,0.997412,76.8007,179.281)"
font-family="Ubuntu" font-size="14.6667" font-weight="400" font-style="normal" 
>
</g>

<g fill="none" stroke="#204a87" stroke-opacity="1" stroke-width="1" stroke-linecap="square" stroke-linejoin="bevel" transform="matrix(0.997412,0,0,0.997412,76.8007,179.281)"
font-family="Ubuntu" font-size="14.6667" font-weight="400" font-style="normal" 
>
<polyline fill="none" vector-effect="non-scaling-stroke" points="247,4 243,1 " />
<polyline fill="none" vector-effect="non-scaling-stroke" points="247,4 243,7 " />
<polyline fill="none" vector-effect="non-scaling-stroke" points="0,4 247,4 " />
</g>

<g fill="none" stroke="#000000" stroke-opacity="1" stroke-width="1" stroke-linecap="square" stroke-linejoin="bevel" transform="matrix(0.997412,0,0,0.997412,76.8007,179.281)"
font-family="Ubuntu" font-size="14.6667" font-weight="400" font-style="normal" 
>
</g>

<g fill="none" stroke="#000000" stroke-opacity="1" stroke-width="1" stroke-linecap="square" stroke-linejoin="bevel" transform="matrix(0.997412,0,0,0.997412,100.739,153.601)"
font-family="Ubuntu" font-size="14.6667" font-weight="400" font-style="normal" 
>
</g>

<g fill="none" stroke="#000000" stroke-opacity="1" stroke-width="1" stroke-linecap="square" stroke-linejoin="bevel" transform="matrix(0.997412,0,0,0.997412,100.739,153.601)"
font-family="Ubuntu" font-size="14.6667" font-weight="400" font-style="normal" 
>
</g>

<g fill="none" stroke="#000000" stroke-opacity="1" stroke-width="1" stroke-linecap="square" stroke-linejoin="bevel" transform="matrix(0.997412,0,0,0.997412,100.739,153.601)"
font-family="Ubuntu" font-size="14.6667" font-weight="400" font-style="normal" 
>
<text fill="#000000" fill-opacity="1" stroke="none" xml:space="preserve" x="9.53125" y="18" font-family="Ubuntu" font-size="14.6667" font-weight="400" font-style="normal" 
 >3: Detect myStrom devices</text>
</g>

<g fill="none" stroke="#000000" stroke-opacity="1" stroke-width="1" stroke-linecap="square" stroke-linejoin="bevel" transform="matrix(0.997412,0,0,0.997412,100.739,153.601)"
font-family="Ubuntu" font-size="14.6667" font-weight="400" font-style="normal" 
>
</g>

<g fill="none" stroke="#000000" stroke-opacity="1" stroke-width="1" stroke-linecap="square" stroke-linejoin="bevel" transform="matrix(1,0,0,1,0,0)"
font-family="Ubuntu" font-size="14.6667" font-weight="400" font-style="normal" 
>
</g>
</g>
</svg>
